{"title":"Lego Legends of Chima - The Lion The Crocodile and the Power of ","uid":11043009,"size":1898390946,"categoryP":"video","categoryS":"movies","magnet":"?xt=urn:btih:e8bcc4c8f4c9b410a673b73c17b9107380ecb93c&amp;dn=Lego+Legends+of+Chima+-+The+Lion+The+Crocodile+and+the+Power+of+&amp;tr=udp%3A%2F%2Ftracker.openbittorrent.com%3A80&amp;tr=udp%3A%2F%2Fopen.demonii.com%3A1337&amp;tr=udp%3A%2F%2Ftracker.coppersurfer.tk%3A6969&amp;tr=udp%3A%2F%2Fexodus.desync.com%3A6969","seeders":0,"leechers":0,"uploader":"peaSoup","files":-1,"time":1410903563,"description":"The magical world of CHIMA - a land ruled by animals that walk, talk, drive vehicles, use machinery and live in castles - was once a pristine, natural paradise but has now become a battle ground where friends have become worst enemies.         &lt;a href=&quot; http://i.imgur.com/LMB2MeM.jpg&quot; rel=&quot;nofollow&quot; target=&quot;_NEW&quot;&gt; http://i.imgur.com/LMB2MeM.jpg&lt;/a&gt;                                                      &lt;a href=&quot; http://i.imgur.com/NjNV0YJ.jpg&quot; rel=&quot;nofollow&quot; target=&quot;_NEW&quot;&gt; http://i.imgur.com/NjNV0YJ.jpg&lt;/a&gt;                                                      &lt;a href=&quot; http://i.imgur.com/w9lfyyk.jpg&quot; rel=&quot;nofollow&quot; target=&quot;_NEW&quot;&gt; http://i.imgur.com/w9lfyyk.jpg&lt;/a&gt;                                                       \nFormat                                   : AVI\nFormat/Info                              : Audio Video Interleave\nFormat profile                           : OpenDML\nFile size                                : 1.76 GiB\nDuration                                 : 1h 45mn\nOverall bit rate                         : 2 383 Kbps\nMovie name                               : Lego Legends of Chima - The Lion The Crocodile and the Power of Chi! \n\n(2013) DVDRip XviD AC3 peaSoup\nWriting application                      : Lavf54.63.104\nOriginal source form/Name                : LEGO_LEGENDS_OF_CHIMA_S1_P1_D1\n\nVideo\nID                                       : 0\nFormat                                   : MPEG-4 Visual\nFormat profile                           : Advanced Simple@L5\nFormat settings, BVOP                    : 2\nFormat settings, QPel                    : No\nFormat settings, GMC                     : No warppoints\nFormat settings, Matrix                  : Default (MPEG)\nMuxing mode                              : Packed bitstream\nCodec ID                                 : XVID\nCodec ID/Hint                            : XviD\nDuration                                 : 1h 45mn\nBit rate                                 : 2 180 Kbps\nWidth                                    : 720 pixels\nHeight                                   : 404 pixels\nDisplay aspect ratio                     : 16:9\nFrame rate                               : 25.000 fps\nColor space                              : YUV\nChroma subsampling                       : 4:2:0\nBit depth                                : 8 bits\nScan type                                : Progressive\nCompression mode                         : Lossy\nBits/(Pixel*Frame)                       : 0.300\nStream size                              : 1.61 GiB (91%)\nWriting library                          : XviD 64\n\nAudio\nID                                       : 1\nFormat                                   : AC-3\nFormat/Info                              : Audio Coding 3\nFormat profile                           : Dolby Digital\nMode extension                           : CM (complete main)\nFormat settings, Endianness              : Big\nCodec ID                                 : 2000\nDuration                                 : 1h 45mn\nBit rate mode                            : Constant\nBit rate                                 : 192 Kbps\nChannel(s)                               : 2 channels\nChannel positions                        : Front: L R\nSampling rate                            : 48.0 KHz\nBit depth                                : 16 bits\nCompression mode                         : Lossy\nStream size                              : 145 MiB (8%)\nAlignment                                : Aligned on interleaves\nInterleave, duration                     : 32 ms (0.80 video frame)","torrent":{"xt":"urn:btih:e8bcc4c8f4c9b410a673b73c17b9107380ecb93c","amp;dn":"Lego+Legends+of+Chima+-+The+Lion+The+Crocodile+and+the+Power+of+","amp;tr":["udp%3A%2F%2Ftracker.openbittorrent.com%3A80","udp%3A%2F%2Fopen.demonii.com%3A1337","udp%3A%2F%2Ftracker.coppersurfer.tk%3A6969","udp%3A%2F%2Fexodus.desync.com%3A6969"],"infoHash":"e8bcc4c8f4c9b410a673b73c17b9107380ecb93c","infoHashBuffer":{"type":"Buffer","data":[232,188,196,200,244,201,180,16,166,115,183,60,23,185,16,115,128,236,185,60]},"announce":[],"urlList":[]}}